C:\Users\r0593348\3dpredictsim\Results\Batchsim_tmt_linear\Pog_s1_tmt_bCst_d05_k2000_ig24_act_GRF.mot
nRows=22
nColumns=19

name C:\Users\r0593348\3dpredictsim\Results\Batchsim_tmt_linear\Pog_s1_tmt_bCst_d05_k2000_ig24_act_GRF.mot
datacolumns 19
datarows 22
range 0.5858511667 0.8319086567
endheader
time 	ground_force_vx	ground_force_vy	ground_force_vz	ground_force_px	ground_force_py	ground_force_pz	1_ground_force_vx	1_ground_force_vy	1_ground_force_vz	1_ground_force_px	1_ground_force_py	1_ground_force_pz	ground_torque_x	ground_torque_y	ground_torque_z	1_ground_torque_x	1_ground_torque_y	1_ground_torque_z
        0.5858511667	      106.0832409797	      430.7093801875	        1.8767568576	        0.3871091146	        0.0000000000	        0.0355968087	      -70.0592292980	       54.0243037296	      -17.5163559339	        0.9010630156	        0.0000000000	       -0.0503444057	        0.0000000000	        0.0000000000	        0.0000000000	        0.0000000000	        0.0000000000	        0.0000000000	
        0.5975681901	       74.2548876602	      330.8843825421	        7.6836268869	        0.3941375619	        0.0000000000	        0.0328671094	     -133.9928628876	      137.0411890684	      -48.7272854296	        0.9095552383	        0.0000000000	       -0.0484458610	        0.0000000000	        0.0000000000	        0.0000000000	        0.0000000000	        0.0000000000	        0.0000000000	
        0.6092852134	       41.6027653663	      222.5376309949	       13.8578507207	        0.4065994191	        0.0000000000	        0.0274988385	      -61.1467560426	      301.2668310133	      -19.6888130982	        0.9161152869	        0.0000000000	       -0.0467242854	        0.0000000000	        0.0000000000	        0.0000000000	        0.0000000000	        0.0000000000	        0.0000000000	
        0.6210022367	       26.0833055965	      167.3289956060	       14.0508345548	        0.4152964033	        0.0000000000	        0.0231022573	      -54.2496743380	      503.7613759152	        3.2828924326	        0.9214597498	        0.0000000000	       -0.0471741749	        0.0000000000	        0.0000000000	        0.0000000000	        0.0000000000	        0.0000000000	        0.0000000000	
        0.6327192601	       22.8024332791	      131.3585175846	       15.6867578851	        0.4155984275	        0.0000000000	        0.0233286876	      -94.5463839726	      731.1222410311	       14.2165471232	        0.9314092948	        0.0000000000	       -0.0496190077	        0.0000000000	        0.0000000000	        0.0000000000	        0.0000000000	        0.0000000000	        0.0000000000	
        0.6444362834	       14.4544581147	       86.2297582168	       14.1955619409	        0.4159321538	        0.0000000000	        0.0233968228	     -120.6814132537	      853.9903798590	       20.9345455258	        0.9381399210	        0.0000000000	       -0.0511706439	        0.0000000000	        0.0000000000	        0.0000000000	        0.0000000000	        0.0000000000	        0.0000000000	
        0.6561533067	        0.4278568675	       35.3625637870	        7.5111258016	        0.4154371164	        0.0000000000	        0.0233106852	     -126.3603784885	      878.3017778251	       20.9688877238	        0.9425623416	        0.0000000000	       -0.0520869469	        0.0000000000	        0.0000000000	        0.0000000000	        0.0000000000	        0.0000000000	        0.0000000000	
        0.6678703301	        0.3083325390	       -0.3147038153	       -0.0114643090	        0.0000000000	        0.0000000000	        0.0000000000	     -118.5636394301	      860.5331914575	       20.3039487473	        0.9462653338	        0.0000000000	       -0.0525914701	        0.0000000000	        0.0000000000	        0.0000000000	        0.0000000000	        0.0000000000	        0.0000000000	
        0.6795873534	        0.0012307091	       -0.0010057772	        0.0000704894	        0.0000000000	        0.0000000000	        0.0000000000	     -105.3225523715	      824.5391651255	       19.8290232646	        0.9502128148	        0.0000000000	       -0.0527580482	        0.0000000000	        0.0000000000	        0.0000000000	        0.0000000000	        0.0000000000	        0.0000000000	
        0.6913043767	        0.0012969575	       -0.0009097596	        0.0000942185	        0.0000000000	        0.0000000000	        0.0000000000	      -92.6255525879	      783.8027296105	       19.3029666812	        0.9547386975	        0.0000000000	       -0.0527109661	        0.0000000000	        0.0000000000	        0.0000000000	        0.0000000000	        0.0000000000	        0.0000000000	
        0.7030214001	        0.0145544813	       -0.0091009499	        0.0011430595	        0.0000000000	        0.0000000000	        0.0000000000	      -83.2469266117	      749.0840539247	       19.1157449217	        0.9600710740	        0.0000000000	       -0.0524683815	        0.0000000000	        0.0000000000	        0.0000000000	        0.0000000000	        0.0000000000	        0.0000000000	
        0.7147384234	       -0.1025482921	        0.0586098008	       -0.0083722793	        0.0000000000	        0.0000000000	        0.0000000000	      -73.9242135913	      717.8948528803	       19.1525239779	        0.9653994120	        0.0000000000	       -0.0521320182	        0.0000000000	        0.0000000000	        0.0000000000	        0.0000000000	        0.0000000000	        0.0000000000	
        0.7264554467	       -0.1192571797	        0.0640400034	       -0.0094382049	        0.0000000000	        0.0000000000	        0.0000000000	      -64.3995118732	      687.9327118110	       19.3311598103	        0.9702696524	        0.0000000000	       -0.0518576218	        0.0000000000	        0.0000000000	        0.0000000000	        0.0000000000	        0.0000000000	        0.0000000000	
        0.7381724701	       -0.0696925558	        0.0355503390	       -0.0054434014	        0.0000000000	        0.0000000000	        0.0000000000	      -55.4399132601	      661.6317682989	       19.7091363715	        0.9748858016	        0.0000000000	       -0.0516582247	        0.0000000000	        0.0000000000	        0.0000000000	        0.0000000000	        0.0000000000	        0.0000000000	
        0.7498894934	       -0.0448984307	        0.0219485914	       -0.0034756619	        0.0000000000	        0.0000000000	        0.0000000000	      -47.3759581459	      639.9088764956	       20.1135796371	        0.9794542073	        0.0000000000	       -0.0515093584	        0.0000000000	        0.0000000000	        0.0000000000	        0.0000000000	        0.0000000000	        0.0000000000	
        0.7616065167	       -0.0355791763	        0.0167775520	       -0.0027351671	        0.0000000000	        0.0000000000	        0.0000000000	      -40.1770020442	      622.0534379935	       20.3184454080	        0.9840148728	        0.0000000000	       -0.0513844552	        0.0000000000	        0.0000000000	        0.0000000000	        0.0000000000	        0.0000000000	        0.0000000000	
        0.7733235401	       -0.0351003317	        0.0160485220	       -0.0026575040	        0.0000000000	        0.0000000000	        0.0000000000	      -33.3337236661	      608.7537982997	       20.4733733353	        0.9891507514	        0.0000000000	       -0.0512209253	        0.0000000000	        0.0000000000	        0.0000000000	        0.0000000000	        0.0000000000	        0.0000000000	
        0.7850405634	       -0.0423628398	        0.0188476919	       -0.0031450169	        0.0000000000	        0.0000000000	        0.0000000000	      -28.1052554122	      599.8243585202	       20.4521769932	        0.9950419575	        0.0000000000	       -0.0509622064	        0.0000000000	        0.0000000000	        0.0000000000	        0.0000000000	        0.0000000000	        0.0000000000	
        0.7967575867	       -0.0608270210	        0.0263889729	       -0.0043932723	        0.0000000000	        0.0000000000	        0.0000000000	      -23.8953503723	      594.1290351165	       20.0444596117	        1.0013732169	        0.0000000000	       -0.0506107155	        0.0000000000	        0.0000000000	        0.0000000000	        0.0000000000	        0.0000000000	        0.0000000000	
        0.8084746101	       -0.0992831650	        0.0420845885	       -0.0069043042	        0.0000000000	        0.0000000000	        0.0000000000	      -20.4685230638	      590.6960997925	       19.6062957815	        1.0079770564	        0.0000000000	       -0.0501724892	        0.0000000000	        0.0000000000	        0.0000000000	        0.0000000000	        0.0000000000	        0.0000000000	
        0.8201916334	       -0.1739957079	        0.0722271504	       -0.0115760679	        0.0000000000	        0.0000000000	        0.0000000000	      -17.9606464580	      589.1086225199	       19.0685434800	        1.0146604349	        0.0000000000	       -0.0496735812	        0.0000000000	        0.0000000000	        0.0000000000	        0.0000000000	        0.0000000000	        0.0000000000	
        0.8319086567	       -0.3082617627	        0.1256316368	       -0.0195722426	        0.0000000000	        0.0000000000	        0.0000000000	      -15.7592740520	      588.2090394108	       18.9161467823	        1.0212080673	        0.0000000000	       -0.0491460313	        0.0000000000	        0.0000000000	        0.0000000000	        0.0000000000	        0.0000000000	        0.0000000000	
